<?xml version="1.0" encoding="UTF-8" standalone="no"?>
<!DOCTYPE svg PUBLIC "-//W3C//DTD SVG 1.1//EN" "http://www.w3.org/Graphics/SVG/1.1/DTD/svg11.dtd">
<svg xmlns="http://www.w3.org/2000/svg" version="1.1" viewBox="0 0 544 158">
<path fill="#99d7db" d="M 1.00,0.29 Q 1.37,0.88 0.96,1.50 Q 0.38,1.59 0.00,1.19 Q 0.00,0.94 0.00,0.69 Q 0.36,0.12 1.00,0.29 Z"/>
<path fill="#99d7db" d="M 1.00,0.29 Q 78.37,0.22 155.75,0.25 Q 156.86,0.25 156.96,1.00 Q 156.72,1.42 156.32,1.54 Q 155.66,1.72 155.45,1.92 L 78.50,78.79 L 0.96,1.50 Q 1.37,0.88 1.00,0.29 Z"/>
<path fill="#0079c2" d="M 156.96,1.00 L 157.00,155.77 A 1.17,1.16 -90.0 0 1 155.84,156.94 L 78.25,156.96 L 78.50,78.79 L 155.45,1.92 Q 155.66,1.72 156.32,1.54 Q 156.72,1.42 156.96,1.00 Z"/>
<path fill="#003e7e" d="M 0.00,1.19 Q 0.38,1.59 0.96,1.50 L 78.50,78.79 L 78.25,156.96 Q 40.00,157.03 1.75,157.00 Q 0.48,157.00 0.00,156.69 Q 0.00,78.94 0.00,1.19 Z"/>
<path fill="#003d77" d="M 216.24,64.78 Q 221.43,63.67 222.96,57.67 A 1.41,1.41 -88.1 0 1 224.08,56.62 Q 226.62,56.16 227.00,57.56 Q 227.20,58.30 226.62,59.89 Q 222.97,69.93 211.51,68.42 Q 201.15,67.05 198.46,57.01 Q 197.01,51.64 198.22,46.19 Q 201.31,32.29 215.50,33.25 Q 225.15,33.90 227.15,43.51 A 0.85,0.80 65.2 0 1 226.88,44.33 Q 225.03,45.86 223.64,44.54 Q 223.17,44.10 222.39,42.13 Q 220.88,38.28 216.75,37.25 Q 211.91,36.05 208.04,38.23 Q 204.60,40.17 202.97,44.52 Q 200.82,50.23 202.65,56.57 Q 204.08,61.53 208.09,63.64 Q 211.97,65.69 216.24,64.78 Z"/>
<rect fill="#003d77" x="258.25" y="33.50" width="4.24" height="34.76" rx="1.49"/>
<rect fill="#003d77" x="268.24" y="33.50" width="4.26" height="34.76" rx="1.41"/>
<path fill="#003d77" d="M 283.34,33.80 A 1.51,1.51 38.6 0 1 285.03,33.61 Q 287.48,34.89 289.21,37.11 Q 289.42,37.37 290.60,38.60 Q 291.77,39.81 290.72,40.89 Q 289.34,42.31 287.88,40.97 Q 285.17,38.45 283.09,36.41 Q 281.79,35.14 283.34,33.80 Z"/>
<path fill="#003d77" d="M 385.32,66.31 Q 383.51,68.30 380.78,68.71 Q 375.84,69.45 372.48,66.87 Q 369.58,64.65 368.44,60.21 Q 367.62,57.01 367.94,53.69 Q 368.26,50.30 369.89,47.59 Q 374.31,40.27 383.84,43.76 A 1.61,0.91 71.9 0 1 384.53,44.39 Q 384.84,44.86 385.32,45.00 A 0.44,0.40 -82.2 0 0 385.84,44.57 L 385.98,35.23 A 1.74,1.64 86.3 0 1 387.36,33.56 Q 390.45,33.06 390.42,35.75 Q 390.25,50.75 390.25,66.54 A 1.73,1.72 85.0 0 1 388.83,68.24 Q 386.54,68.64 386.50,66.75 Q 386.47,65.04 385.32,66.31 ZM 383.77,62.99 Q 385.79,60.03 385.99,56.89 Q 386.20,53.58 385.17,50.66 Q 383.74,46.59 378.92,46.44 Q 377.11,46.39 375.72,47.14 Q 374.07,48.04 373.31,49.56 Q 371.45,53.32 372.21,58.26 Q 373.44,66.23 381.10,64.75 Q 382.80,64.42 383.77,62.99 Z"/>
<path fill="#003d77" d="M 253.5963,58.0202 A 10.46 10.46 0.0 0 1 243.2096,68.5530 L 241.2897,68.5664 A 10.46 10.46 0.0 0 1 230.7569,58.1797 L 230.7237,53.4198 A 10.46 10.46 0.0 0 1 241.1104,42.8870 L 243.0303,42.8736 A 10.46 10.46 0.0 0 1 253.5631,53.2603 L 253.5963,58.0202 ZM 242.1864,65.0900 A 9.40,7.50 89.9 0 0 249.6700,55.6769 A 9.40,7.50 89.9 0 0 242.1536,46.2900 A 9.40,7.50 89.9 0 0 234.6700,55.7031 A 9.40,7.50 89.9 0 0 242.1864,65.0900 Z"/>
<path fill="#003d77" d="M 298.31,62.67 Q 294.99,68.66 289.00,68.76 Q 279.86,68.91 277.43,60.31 Q 276.19,55.91 277.09,51.42 Q 278.00,46.89 281.33,44.59 Q 284.17,42.64 288.54,42.84 Q 299.33,43.33 299.00,56.11 A 1.17,1.17 -89.2 0 1 297.83,57.25 L 281.66,57.25 A 0.55,0.54 -4.1 0 0 281.12,57.87 Q 281.88,63.18 286.57,64.51 Q 292.05,66.07 294.48,61.15 Q 295.64,58.81 297.36,59.66 Q 299.41,60.67 298.31,62.67 ZM 281.80,50.05 Q 279.26,53.51 283.49,53.49 L 294.44,53.45 A 0.46,0.46 87.2 0 0 294.90,52.94 Q 294.36,47.75 289.21,46.70 Q 284.92,45.82 281.80,50.05 Z"/>
<path fill="#003d77" d="M 319.44,66.60 Q 318.82,66.72 318.38,67.18 Q 317.93,67.62 317.60,67.75 Q 311.86,70.03 307.49,67.33 Q 303.72,64.99 302.48,59.81 Q 301.22,54.57 303.16,49.55 Q 304.87,45.11 308.55,43.50 Q 312.61,41.73 317.46,43.51 Q 318.90,44.04 319.70,45.33 Q 320.11,45.99 320.34,45.25 Q 321.15,42.71 323.14,43.22 A 1.82,1.81 -82.8 0 1 324.50,44.98 Q 324.50,54.63 324.51,63.25 Q 324.51,66.50 323.81,69.62 Q 323.02,73.14 321.06,75.25 Q 316.51,80.15 308.93,77.32 Q 304.63,75.72 304.05,71.24 A 1.01,0.93 66.3 0 1 304.34,70.39 Q 305.64,69.15 307.38,69.96 A 1.32,1.04 87.2 0 1 307.98,70.65 Q 310.10,76.20 315.69,74.19 Q 320.23,72.55 319.97,67.06 A 0.49,0.45 83.6 0 0 319.44,66.60 ZM 319.59,59.77 Q 321.02,55.80 319.74,51.39 Q 318.19,46.03 312.50,46.47 Q 308.82,46.76 307.44,49.94 Q 305.31,54.84 306.84,59.77 Q 307.70,62.52 309.71,63.96 Q 312.37,65.85 315.22,64.69 Q 318.27,63.45 319.59,59.77 Z"/>
<path fill="#003d77" d="M 350.35,62.56 Q 347.35,68.15 342.09,68.77 Q 337.34,69.33 333.91,66.95 Q 330.80,64.80 329.48,60.55 Q 328.15,56.27 329.09,51.57 Q 330.13,46.40 334.07,44.15 Q 337.55,42.16 342.15,42.97 Q 350.90,44.52 351.01,55.67 A 1.57,1.57 89.8 0 1 349.44,57.25 L 334.07,57.25 A 1.00,1.00 82.4 0 0 333.11,58.51 Q 335.17,65.99 342.50,64.75 Q 344.68,64.38 345.81,62.09 Q 346.65,60.38 346.97,60.06 Q 348.14,58.92 349.56,59.75 Q 351.31,60.77 350.35,62.56 ZM 335.57,48.03 Q 333.17,50.51 333.16,52.81 A 0.54,0.53 -90.0 0 0 333.69,53.35 L 346.31,53.35 A 0.45,0.44 85.5 0 0 346.74,52.83 Q 345.35,44.60 337.50,46.87 Q 336.38,47.19 335.57,48.03 Z"/>
<path fill="#003d77" d="M 398.46,45.29 Q 404.27,41.01 410.56,43.69 Q 416.24,46.10 416.71,52.60 Q 416.72,52.80 417.04,54.86 Q 417.44,57.47 414.25,57.39 Q 406.66,57.20 399.98,57.30 A 1.06,1.06 -9.4 0 0 398.99,58.68 Q 401.33,65.98 408.25,64.75 Q 410.71,64.31 411.89,61.70 Q 412.48,60.37 412.97,60.04 Q 413.86,59.43 415.09,59.71 A 1.60,1.59 -75.4 0 1 416.26,61.71 Q 414.55,67.58 408.52,68.59 Q 403.51,69.44 399.84,67.02 Q 396.59,64.88 395.20,60.36 Q 393.38,54.46 395.82,48.65 Q 396.67,46.60 398.46,45.29 ZM 399.77,49.70 Q 396.69,53.48 401.52,53.48 L 412.09,53.50 A 0.46,0.46 87.2 0 0 412.55,52.99 Q 412.13,48.91 408.97,47.39 Q 403.71,44.87 399.77,49.70 Z"/>
<path fill="#003d77" d="M 233.90,103.02 L 225.89,123.38 A 2.31,2.16 10.0 0 1 223.78,124.75 L 218.78,124.75 A 0.94,0.94 -11.2 0 1 217.91,124.17 L 209.08,102.92 Q 208.43,101.34 208.44,103.05 L 208.50,123.47 A 1.28,1.28 -0.0 0 1 207.22,124.75 L 201.18,124.75 A 1.17,1.15 0.2 0 1 200.01,123.59 L 200.18,85.43 A 0.59,0.58 85.4 0 1 200.67,84.85 Q 204.97,84.11 209.31,84.62 A 0.90,0.86 -6.7 0 1 210.01,85.15 L 221.27,112.57 Q 221.66,113.54 222.06,112.58 L 233.03,85.65 A 1.85,1.82 -78.7 0 1 234.72,84.50 L 242.22,84.50 A 1.03,1.03 -45.0 0 1 243.25,85.53 L 243.25,123.49 A 1.26,1.26 89.6 0 1 241.99,124.75 L 236.24,124.75 A 1.24,1.24 -0.9 0 1 235.00,123.51 Q 235.00,113.00 234.93,103.00 Q 234.93,102.22 234.48,102.34 A 1.12,0.54 -75.2 0 0 233.90,103.02 Z"/>
<rect fill="#003d77" x="-4.13" y="-3.50" transform="translate(285.11,88.00) rotate(-0.3)" width="8.26" height="7.00" rx="0.80"/>
<path fill="#003d77" d="M 266.52,105.95 Q 266.89,103.00 264.52,102.55 Q 263.00,102.27 261.49,102.40 Q 259.76,102.55 258.71,104.02 A 1.36,1.13 -73.9 0 1 257.94,104.54 Q 256.28,104.85 254.59,104.81 Q 254.34,104.81 252.44,104.88 Q 249.63,104.99 250.81,101.81 Q 252.28,97.87 256.59,96.39 Q 261.68,94.64 267.50,96.00 Q 271.85,97.02 273.37,100.84 Q 274.90,104.65 274.83,108.73 Q 274.78,111.66 274.78,111.78 Q 274.89,117.90 274.53,124.00 A 0.64,0.63 87.2 0 1 274.00,124.59 Q 272.32,124.85 270.61,124.80 Q 270.51,124.79 268.91,124.89 Q 267.30,124.98 266.76,123.50 A 0.47,0.47 64.1 0 0 266.08,123.26 Q 262.02,125.65 257.96,125.22 Q 253.93,124.79 251.52,122.12 Q 248.91,119.22 249.52,114.50 Q 250.16,109.52 254.75,107.50 Q 259.28,105.51 265.95,106.37 A 0.51,0.50 8.0 0 0 266.52,105.95 ZM 266.5547,114.2021 A 4.56,3.02 -11.1 0 0 261.4986,112.1165 A 4.56,3.02 -11.1 0 0 257.6053,115.9579 A 4.56,3.02 -11.1 0 0 262.6614,118.0435 A 4.56,3.02 -11.1 0 0 266.5547,114.2021 Z"/>
<path fill="#003d77" d="M 298.24,97.52 Q 300.80,95.76 304.50,95.50 Q 309.51,95.15 313.11,96.31 Q 317.70,97.78 318.89,103.15 A 1.31,1.31 81.0 0 1 317.61,104.75 L 312.00,104.75 A 1.11,1.00 68.4 0 1 311.19,104.35 Q 308.60,101.16 304.69,102.69 Q 301.45,103.95 303.54,105.72 Q 304.33,106.40 305.80,106.68 Q 308.86,107.27 311.94,107.80 Q 315.20,108.35 317.27,110.49 Q 319.27,112.55 319.47,115.62 Q 319.71,119.31 317.19,121.83 Q 315.23,123.79 311.73,124.71 Q 306.60,126.05 301.24,124.52 Q 294.66,122.63 294.01,115.82 A 0.97,0.97 -2.9 0 1 294.98,114.75 L 301.20,114.75 A 1.10,1.10 85.0 0 1 302.28,115.66 Q 302.59,117.45 305.43,118.27 Q 307.45,118.84 309.36,117.97 Q 312.30,116.63 310.69,114.89 Q 309.97,114.12 308.40,113.80 Q 305.59,113.23 302.77,112.63 Q 299.21,111.88 296.82,109.19 Q 294.11,106.12 294.79,102.64 Q 295.41,99.46 298.24,97.52 Z"/>
<path fill="#003d77" d="M 351.3632,112.2842 A 12.99 12.99 0.0 0 1 338.2604,125.1603 L 335.7605,125.1385 A 12.99 12.99 0.0 0 1 322.8843,112.0357 L 322.9168,108.3158 A 12.99 12.99 0.0 0 1 336.0196,95.4397 L 338.5195,95.4615 A 12.99 12.99 0.0 0 1 351.3957,108.5643 L 351.3632,112.2842 ZM 337.0702,118.3397 A 8.00,6.28 90.5 0 0 343.4198,110.3948 A 8.00,6.28 90.5 0 0 337.2098,102.3403 A 8.00,6.28 90.5 0 0 330.8602,110.2852 A 8.00,6.28 90.5 0 0 337.0702,118.3397 Z"/>
<path fill="#003d77" d="M 365.39,97.92 Q 368.90,95.09 373.19,95.31 Q 379.25,95.62 381.90,100.01 Q 383.49,102.64 383.67,108.80 Q 383.87,115.83 383.72,123.66 A 1.11,1.11 -89.5 0 1 382.61,124.75 L 376.27,124.75 A 0.77,0.77 -89.5 0 1 375.50,123.98 Q 375.50,115.25 375.50,107.75 Q 375.49,105.83 374.54,104.35 Q 373.66,102.97 371.78,102.66 Q 367.54,101.97 365.75,105.30 Q 364.82,107.04 364.78,110.99 Q 364.71,117.27 364.75,123.63 A 1.11,1.11 89.7 0 1 363.64,124.75 L 357.82,124.75 A 1.32,1.32 45.0 0 1 356.50,123.43 L 356.50,97.48 A 1.41,1.32 -89.6 0 1 357.84,96.07 L 363.32,96.13 A 0.97,0.77 71.8 0 1 364.06,96.62 L 364.75,97.81 A 0.43,0.42 -34.8 0 0 365.39,97.92 Z"/>
<path fill="#003d77" d="M 398.63,97.93 Q 402.89,94.49 408.00,95.50 Q 416.79,97.24 416.90,106.75 Q 417.00,115.38 417.00,123.66 A 1.09,1.09 -89.8 0 1 415.91,124.75 L 409.73,124.75 A 1.17,1.17 89.8 0 1 408.56,123.59 Q 408.47,116.97 408.49,110.08 Q 408.50,105.98 408.49,105.91 Q 408.19,104.25 406.82,103.23 Q 405.69,102.39 403.99,102.48 Q 398.25,102.78 398.13,109.25 Q 398.00,115.88 398.00,123.49 A 1.25,1.22 -89.8 0 1 396.77,124.74 L 390.69,124.70 A 0.97,0.94 -90.0 0 1 389.75,123.73 L 389.75,97.06 A 1.00,0.93 -89.4 0 1 390.70,96.06 L 396.56,96.13 A 1.02,0.72 70.6 0 1 397.28,96.64 L 397.97,97.84 A 0.45,0.42 -35.2 0 0 398.63,97.93 Z"/>
<path fill="#003d77" d="M 430.23,114.47 Q 433.59,121.29 439.87,116.31 A 1.43,1.40 -63.6 0 1 440.75,116.00 L 446.82,116.00 A 0.93,0.93 -83.3 0 1 447.72,117.14 Q 446.38,122.72 440.81,124.56 Q 437.44,125.68 433.70,125.23 Q 430.07,124.79 427.19,122.77 Q 420.22,117.88 421.44,107.94 Q 422.30,100.91 427.22,97.64 Q 431.62,94.71 437.73,95.67 Q 447.75,97.25 448.90,108.84 Q 449.14,111.36 449.12,111.65 Q 448.99,113.53 446.80,113.36 Q 445.28,113.25 445.19,113.25 Q 438.21,113.25 430.99,113.25 A 0.85,0.85 -13.1 0 0 430.23,114.47 ZM 430.92,104.70 Q 428.34,107.21 431.91,107.22 L 439.01,107.25 Q 440.77,107.26 439.88,105.72 Q 436.28,99.50 430.92,104.70 Z"/>
<path fill="#003d77" d="M 517.69,100.44 Q 519.51,97.79 522.58,96.44 Q 525.15,95.30 528.59,95.45 Q 541.97,96.01 542.26,111.47 A 1.74,1.74 89.4 0 1 540.52,113.25 L 524.49,113.25 A 1.02,1.01 -14.6 0 0 523.60,114.76 Q 526.72,120.29 532.56,117.06 Q 534.49,116.00 535.25,116.00 L 539.88,116.00 A 1.23,1.23 -80.6 0 1 541.04,117.62 Q 540.21,120.11 538.53,121.88 Q 536.98,123.52 534.47,124.40 Q 529.22,126.26 523.44,124.31 Q 518.65,122.70 516.58,118.43 Q 511.91,108.84 517.69,100.44 ZM 524.33,104.55 Q 522.12,106.90 525.32,107.23 Q 526.51,107.36 528.72,107.30 Q 529.15,107.29 531.28,107.38 Q 534.65,107.52 532.90,104.97 Q 532.23,104.00 531.27,103.38 Q 527.64,101.04 524.33,104.55 Z"/>
<rect fill="#003d77" x="281.00" y="96.00" width="8.24" height="28.74" rx="0.80"/>
<path fill="#003d77" d="M 472.42,96.30 Q 474.13,95.84 475.91,95.91 Q 476.09,95.92 478.08,95.86 Q 480.30,95.80 480.13,98.14 Q 480.01,99.75 480.01,99.87 Q 480.13,111.85 479.82,123.82 A 0.70,0.67 82.6 0 1 479.34,124.47 Q 478.13,124.85 476.85,124.85 Q 474.21,124.85 474.14,124.84 Q 472.77,124.65 471.71,123.20 A 0.65,0.65 50.3 0 0 470.75,123.11 Q 470.06,123.76 469.14,124.29 Q 468.33,124.76 467.27,124.92 Q 456.82,126.59 454.14,118.48 Q 453.25,115.79 453.25,107.94 Q 453.25,102.55 453.25,97.31 A 1.26,1.18 -89.8 0 1 454.44,96.05 L 460.81,96.14 A 0.56,0.52 88.9 0 1 461.33,96.68 Q 461.64,104.84 461.72,113.00 Q 461.78,119.68 467.94,117.94 Q 470.00,117.35 470.94,115.31 Q 471.48,114.13 471.56,111.61 Q 471.79,104.27 471.93,96.94 A 0.68,0.66 83.2 0 1 472.42,96.30 Z"/>
<path fill="#003d77" d="M 502.13,124.20 A 0.96,0.96 12.6 0 1 501.26,124.75 L 495.90,124.75 A 1.72,1.71 -11.8 0 1 494.33,123.73 Q 489.98,113.92 485.60,104.17 Q 484.35,101.37 484.89,97.16 A 1.33,1.33 3.7 0 1 486.21,96.00 L 490.14,96.00 A 1.32,1.28 -10.4 0 1 491.36,96.81 L 497.74,113.25 Q 498.37,114.87 499.00,113.26 L 505.26,97.15 A 1.51,1.28 -77.9 0 1 506.52,96.18 L 511.20,96.19 A 0.77,0.57 82.3 0 1 511.80,96.80 Q 512.71,100.81 511.44,103.69 Q 506.98,113.80 502.13,124.20 Z"/>
</svg>
